<svg xmlns="http://www.w3.org/2000/svg">
  <symbol id="icon-vk" viewBox="0 0 25 20" fill="none">
    <path d="M2 5.70091C2 5.07907 2.42312 4.74377 3.26936 4.695L6.5303 4.71329C6.74916 4.71329 6.89506 4.80473 6.96801 4.98763C7.30359 5.9021 7.67929 6.69159 8.09512 7.35611C8.51094 8.02062 9.05443 8.78573 9.72559 9.65143C9.78395 9.76116 9.87879 9.81603 10.0101 9.81603C10.1122 9.81603 10.1925 9.77335 10.2508 9.688L10.3165 9.48682L10.3384 6.32275C10.3384 6.10328 10.2764 5.95697 10.1524 5.88381C10.0283 5.81065 9.79854 5.75578 9.46296 5.7192C9.20034 5.68263 9.06902 5.5485 9.06902 5.31684C9.06902 5.26807 9.07632 5.23149 9.09091 5.2071C9.39731 4.41456 10.2727 4.01829 11.7172 4.01829L12.9428 4C13.4972 4 13.9568 4.11583 14.3215 4.3475C14.6863 4.57916 14.8687 4.94495 14.8687 5.44486V9.59656C14.9708 9.65752 15.0657 9.688 15.1532 9.688C15.3721 9.688 15.5617 9.57827 15.7222 9.35879C17.3272 7.48108 18.1953 6.22521 18.3266 5.59118C18.3266 5.57899 18.3412 5.5485 18.3704 5.49973C18.4725 5.31684 18.6403 5.15833 18.8737 5.02421C19.1072 4.89008 19.3114 4.79864 19.4865 4.74987C19.5449 4.72548 19.6106 4.71329 19.6835 4.71329H23.0758L23.2946 4.73158C23.5864 4.73158 23.8126 4.84741 23.9731 5.07907C24.0314 5.15223 24.0716 5.23149 24.0934 5.31684C24.1153 5.40219 24.1299 5.48754 24.1372 5.57289C24.1445 5.65824 24.1481 5.70701 24.1481 5.7192V5.84723C24.046 6.34714 23.787 6.88058 23.3712 7.44755C22.9554 8.01452 22.4265 8.62722 21.7845 9.28564C21.1425 9.94406 20.7413 10.3769 20.5808 10.5842C20.4495 10.7305 20.3838 10.8646 20.3838 10.9866C20.3838 11.0841 20.4422 11.1938 20.5589 11.3158L23.7542 14.681C23.9293 14.8761 24.0168 15.0895 24.0168 15.3211C24.0168 15.6016 23.8855 15.8332 23.6229 16.0161C23.3603 16.199 23.0466 16.3027 22.6818 16.3271L22.3098 16.3453H18.9832C18.9686 16.3453 18.9394 16.3484 18.8956 16.3545C18.8519 16.3606 18.8227 16.3636 18.8081 16.3636C18.4871 16.3636 18.188 16.2478 17.9108 16.0161C17.8086 15.9186 17.1229 15.1992 15.8535 13.858C15.7806 13.7726 15.6785 13.6934 15.5471 13.6202C15.4888 13.8153 15.4122 14.0957 15.3173 14.4615C15.2225 14.8273 15.1532 15.0895 15.1094 15.248L15.0438 15.5589C14.8979 15.9857 14.5915 16.2417 14.1246 16.3271L13.8182 16.3453H11.6734C10.4624 16.3453 9.25505 15.882 8.05135 14.9554C6.84764 14.0287 5.76431 12.8307 4.80135 11.3615C3.83838 9.89224 2.94108 8.18218 2.10943 6.23131C2.03648 6.0728 2 5.896 2 5.70091ZM15.1532 10.4379C14.8468 10.4379 14.5696 10.3678 14.3215 10.2275C14.0735 10.0873 13.9495 9.89528 13.9495 9.65143V5.44486C13.9495 5.201 13.8765 5.02725 13.7306 4.92361C13.5847 4.81997 13.3294 4.76815 12.9646 4.76815L11.7172 4.80473C11.0898 4.80473 10.6156 4.89618 10.2946 5.07907C10.9366 5.33513 11.2576 5.74969 11.2576 6.32275V9.54169C11.2284 9.84651 11.0825 10.0995 10.8199 10.3007C10.5572 10.5019 10.2654 10.6025 9.94445 10.6025C9.50673 10.6025 9.17116 10.4257 8.93771 10.0721C7.79966 8.63332 6.95342 7.26771 6.39899 5.97526L6.20202 5.49973L3.29125 5.48144C3.10157 5.48144 2.99579 5.49059 2.97391 5.50888C2.95202 5.52717 2.94108 5.57899 2.94108 5.66434C2.94108 5.77407 2.95567 5.8899 2.98485 6.01183L3.44444 7.03604C4.67003 9.68191 6.0014 11.7669 7.43855 13.291C8.8757 14.8151 10.2873 15.5772 11.6734 15.5772H13.862C13.9495 15.5772 14.0152 15.5559 14.0589 15.5132C14.1027 15.4705 14.1392 15.3882 14.1684 15.2663L14.2121 15.0834L14.6279 13.4739C14.7447 13.2544 14.8468 13.1081 14.9343 13.035C15.0948 12.9008 15.2845 12.8338 15.5034 12.8338C15.8535 12.8338 16.211 13.0106 16.5758 13.3642L18.436 15.3394C18.5528 15.4979 18.6768 15.5772 18.8081 15.5772H22.4192C22.8569 15.5772 23.0758 15.4857 23.0758 15.3029C23.0758 15.2419 23.0539 15.1809 23.0101 15.12L19.8367 11.8096C19.5887 11.5535 19.4646 11.2792 19.4646 10.9866C19.4646 10.6939 19.5814 10.4135 19.8148 10.1452C20.0045 9.90138 20.3729 9.49597 20.92 8.92899C21.4672 8.36202 21.945 7.83163 22.3535 7.33782C22.7621 6.844 23.032 6.39591 23.1633 5.99354L23.229 5.75578C23.2144 5.7314 23.2071 5.69177 23.2071 5.6369C23.2071 5.58203 23.1998 5.53631 23.1852 5.49973H19.7492C19.5303 5.57289 19.3552 5.68263 19.2239 5.82894L19.0926 6.17644C18.7278 7.01775 17.7722 8.3163 16.2256 10.0721C15.9192 10.3159 15.5617 10.4379 15.1532 10.4379Z" fill="#666666"/>
  </symbol>
</svg>
