<svg width="25" height="20" viewBox="0 0 25 20" fill="none" xmlns="http://www.w3.org/2000/svg">
<path d="M12.9219 2C14.2552 2 15.3438 2.01562 16.1875 2.04687C16.9062 2.07812 17.5469 2.20312 18.1094 2.42187C18.651 2.63021 19.1198 2.93229 19.5156 3.32812C19.9115 3.72396 20.2135 4.19271 20.4219 4.73437C20.6406 5.29687 20.7656 5.9375 20.7969 6.65625C20.8281 7.5 20.8438 8.58854 20.8438 9.92187C20.8438 11.2552 20.8281 12.3437 20.7969 13.1875C20.7656 13.9062 20.6406 14.5469 20.4219 15.1094C20.2135 15.651 19.9115 16.1198 19.5156 16.5156C19.1198 16.9115 18.651 17.2135 18.1094 17.4219C17.5469 17.6406 16.9062 17.7656 16.1875 17.7969C15.3438 17.8281 14.2552 17.8437 12.9219 17.8437C11.5885 17.8437 10.5 17.8281 9.65625 17.7969C8.9375 17.7656 8.29688 17.6406 7.73438 17.4219C7.19271 17.2135 6.72396 16.9115 6.32812 16.5156C5.93229 16.1198 5.63021 15.651 5.42188 15.1094C5.20312 14.5469 5.07812 13.9062 5.04688 13.1875C5.01562 12.3437 5 11.2552 5 9.92187C5 8.58854 5.01562 7.5 5.04688 6.65625C5.07812 5.9375 5.20312 5.29687 5.42188 4.73437C5.63021 4.19271 5.93229 3.72396 6.32812 3.32812C6.72396 2.93229 7.19271 2.63021 7.73438 2.42187C8.29688 2.20312 8.9375 2.07812 9.65625 2.04687C10.5 2.01562 11.5885 2 12.9219 2ZM12.9219 3.03125C11.5365 3.03125 10.4062 3.04687 9.53125 3.07812C8.96875 3.09896 8.44792 3.19792 7.96875 3.375C7.21875 3.6875 6.6875 4.21875 6.375 4.96875C6.19792 5.44792 6.09896 5.96875 6.07812 6.53125C6.04688 7.40625 6.03125 8.53646 6.03125 9.92187C6.03125 11.3073 6.04688 12.4375 6.07812 13.3125C6.09896 13.875 6.19792 14.3958 6.375 14.875C6.6875 15.625 7.21875 16.1562 7.96875 16.4687C8.44792 16.6458 8.96875 16.7448 9.53125 16.7656C10.4062 16.7969 11.5365 16.8125 12.9219 16.8125C14.3073 16.8125 15.4375 16.7969 16.3125 16.7656C16.875 16.7448 17.3958 16.6458 17.875 16.4687C18.625 16.1562 19.1562 15.625 19.4688 14.875C19.6458 14.3958 19.7448 13.875 19.7656 13.3125C19.7969 12.4375 19.8125 11.3073 19.8125 9.92187C19.8125 8.53646 19.7969 7.40625 19.7656 6.53125C19.7448 5.96875 19.6458 5.44792 19.4688 4.96875C19.1562 4.21875 18.625 3.6875 17.875 3.375C17.3958 3.19792 16.875 3.09896 16.3125 3.07812C15.4375 3.04687 14.3073 3.03125 12.9219 3.03125ZM12.9219 13.0937C13.7969 13.0937 14.5443 12.7839 15.1641 12.1641C15.7839 11.5443 16.0938 10.7969 16.0938 9.92187C16.0938 9.04687 15.7839 8.29948 15.1641 7.67969C14.5443 7.0599 13.7969 6.75 12.9219 6.75C12.0469 6.75 11.2995 7.0599 10.6797 7.67969C10.0599 8.29948 9.75 9.04687 9.75 9.92187C9.75 10.7969 10.0599 11.5443 10.6797 12.1641C11.2995 12.7839 12.0469 13.0937 12.9219 13.0937ZM12.9219 5.85937C14.0469 5.85937 15.0052 6.25521 15.7969 7.04687C16.5885 7.83854 16.9844 8.79687 16.9844 9.92187C16.9844 11.0469 16.5885 12.0052 15.7969 12.7969C15.0052 13.5885 14.0469 13.9844 12.9219 13.9844C11.7969 13.9844 10.8385 13.5885 10.0469 12.7969C9.25521 12.0052 8.85938 11.0469 8.85938 9.92187C8.85938 8.79687 9.25521 7.83854 10.0469 7.04687C10.8385 6.25521 11.7969 5.85937 12.9219 5.85937ZM18.1094 5.70312C18.1094 5.96354 18.0156 6.1849 17.8281 6.36719C17.6406 6.54948 17.4115 6.64062 17.1406 6.64062C16.8802 6.64062 16.6589 6.54948 16.4766 6.36719C16.2943 6.1849 16.2031 5.96354 16.2031 5.70312C16.2031 5.43229 16.2943 5.20312 16.4766 5.01562C16.6589 4.82812 16.8802 4.73437 17.1406 4.73437C17.401 4.73437 17.6276 4.83073 17.8203 5.02344C18.013 5.21615 18.1094 5.44271 18.1094 5.70312Z" fill="#666666"/>
</svg>
