<svg width="23" height="22" fill="none" xmlns="http://www.w3.org/2000/svg"><path d="M0 6.7c0-.62.423-.956 1.27-1.005l3.26.018c.22 0 .365.092.438.275.336.914.711 1.704 1.127 2.368.416.665.96 1.43 1.63 2.295a.3.3 0 00.285.165.276.276 0 00.24-.128l.066-.201.022-3.164c0-.22-.062-.366-.186-.44-.124-.072-.353-.127-.689-.164-.263-.036-.394-.17-.394-.402 0-.049.007-.086.022-.11.306-.792 1.182-1.189 2.626-1.189L10.943 5c.554 0 1.014.116 1.379.348.364.231.547.597.547 1.097v4.152a.57.57 0 00.284.091c.22 0 .409-.11.57-.33 1.604-1.877 2.472-3.133 2.604-3.767a.29.29 0 01.043-.091c.102-.183.27-.342.504-.476a2.75 2.75 0 01.613-.274.507.507 0 01.197-.037h3.392l.219.019c.291 0 .518.115.678.347a.629.629 0 01.12.238c.022.085.037.17.044.256.008.085.011.134.011.146v.128c-.102.5-.361 1.034-.777 1.6a17.57 17.57 0 01-1.586 1.839c-.643.658-1.044 1.09-1.204 1.298-.131.146-.197.28-.197.403 0 .097.058.207.175.329l3.195 3.365a.94.94 0 01.263.64c0 .28-.131.512-.394.695a1.826 1.826 0 01-.941.311l-.372.018h-3.327a.803.803 0 00-.087.01.79.79 0 01-.088.009c-.32 0-.62-.116-.897-.348-.102-.097-.788-.817-2.057-2.158a1.104 1.104 0 00-.307-.238c-.058.195-.135.476-.23.841-.095.366-.164.629-.208.787l-.065.31c-.146.428-.453.684-.92.77l-.306.017H9.673c-1.21 0-2.418-.463-3.622-1.39-1.203-.926-2.287-2.124-3.25-3.594C1.838 10.893.941 9.182.11 7.231a1.254 1.254 0 01-.11-.53zm13.153 4.738a1.66 1.66 0 01-.832-.21c-.248-.14-.371-.333-.371-.577V6.445c0-.244-.073-.418-.22-.521-.145-.104-.4-.156-.765-.156l-1.248.037c-.627 0-1.101.091-1.422.274.642.256.963.67.963 1.244v3.219c-.03.305-.176.558-.438.759a1.405 1.405 0 01-.876.301c-.437 0-.773-.176-1.006-.53C5.8 9.633 4.953 8.268 4.399 6.975L4.202 6.5l-2.91-.019c-.19 0-.296.01-.318.028-.022.018-.033.07-.033.155 0 .11.015.226.044.348l.46 1.024C2.67 10.682 4 12.766 5.438 14.291c1.437 1.524 2.848 2.286 4.234 2.286h2.189c.088 0 .153-.021.197-.064.044-.043.08-.125.11-.247l.043-.183.416-1.61c.117-.219.219-.365.306-.438a.86.86 0 01.57-.201c.35 0 .707.177 1.072.53l1.86 1.975c.117.159.24.238.372.238h3.611c.438 0 .657-.091.657-.274a.312.312 0 00-.066-.183l-3.173-3.31c-.248-.257-.372-.53-.372-.823 0-.293.116-.573.35-.842.19-.244.558-.649 1.105-1.216a28.207 28.207 0 001.433-1.591c.41-.494.679-.942.81-1.344l.066-.238a.242.242 0 01-.022-.12c0-.054-.007-.1-.022-.136H17.75a1.199 1.199 0 00-.525.329l-.131.347c-.365.842-1.32 2.14-2.867 3.896a1.672 1.672 0 01-1.073.366z"/></svg>