<svg width="23" height="22" fill="none" xmlns="http://www.w3.org/2000/svg"><path d="M10.922 3c1.333 0 2.422.016 3.265.047.72.031 1.36.156 1.922.375a3.99 3.99 0 011.407.906c.396.396.698.865.906 1.406.219.563.344 1.204.375 1.922.031.844.047 1.933.047 3.266s-.016 2.422-.047 3.265c-.031.72-.156 1.36-.375 1.922a3.987 3.987 0 01-.906 1.407 3.987 3.987 0 01-1.407.906c-.562.219-1.203.344-1.922.375-.843.031-1.932.047-3.265.047a91.88 91.88 0 01-3.266-.047c-.718-.031-1.36-.156-1.922-.375a3.987 3.987 0 01-1.406-.906 3.987 3.987 0 01-.906-1.407c-.219-.562-.344-1.203-.375-1.922A91.709 91.709 0 013 10.922c0-1.333.016-2.422.047-3.266.031-.718.156-1.36.375-1.922.208-.541.51-1.01.906-1.406a3.987 3.987 0 011.406-.906c.563-.219 1.204-.344 1.922-.375A91.735 91.735 0 0110.922 3zm0 1.031c-1.386 0-2.516.016-3.39.047a5.023 5.023 0 00-1.563.297 2.853 2.853 0 00-1.594 1.594c-.177.479-.276 1-.297 1.562a98.83 98.83 0 00-.047 3.39c0 1.386.016 2.517.047 3.392.021.562.12 1.083.297 1.562.313.75.844 1.281 1.594 1.594.479.177 1 .276 1.562.297.875.03 2.005.047 3.39.047 1.386 0 2.517-.016 3.392-.047a5.015 5.015 0 001.562-.297 2.853 2.853 0 001.594-1.594c.177-.48.276-1 .297-1.563.03-.874.047-2.005.047-3.39 0-1.386-.016-2.516-.047-3.39a5.018 5.018 0 00-.297-1.563 2.853 2.853 0 00-1.594-1.594c-.48-.177-1-.276-1.563-.297a98.802 98.802 0 00-3.39-.047zm0 10.063c.875 0 1.622-.31 2.242-.93.62-.62.93-1.367.93-2.242s-.31-1.623-.93-2.242a3.056 3.056 0 00-2.242-.93c-.875 0-1.623.31-2.242.93-.62.62-.93 1.367-.93 2.242s.31 1.622.93 2.242c.62.62 1.367.93 2.242.93zm0-7.235c1.125 0 2.083.396 2.875 1.188.791.792 1.187 1.75 1.187 2.875s-.396 2.083-1.187 2.875c-.792.791-1.75 1.187-2.875 1.187s-2.083-.396-2.875-1.187c-.792-.792-1.188-1.75-1.188-2.875s.396-2.083 1.188-2.875c.792-.792 1.75-1.188 2.875-1.188zm5.187-.156c0 .26-.093.482-.28.664a.949.949 0 01-.688.274.904.904 0 01-.664-.274.904.904 0 01-.274-.664c0-.27.091-.5.274-.687a.891.891 0 01.664-.282.93.93 0 01.68.29.93.93 0 01.288.68z"/></svg>