<svg width="23" height="22" viewBox="0 0 23 22" fill="none" xmlns="http://www.w3.org/2000/svg">
<path d="M10.9219 3C12.2552 3 13.3438 3.01562 14.1875 3.04687C14.9062 3.07812 15.5469 3.20312 16.1094 3.42187C16.651 3.63021 17.1198 3.93229 17.5156 4.32812C17.9115 4.72396 18.2135 5.19271 18.4219 5.73437C18.6406 6.29687 18.7656 6.9375 18.7969 7.65625C18.8281 8.5 18.8438 9.58854 18.8438 10.9219C18.8438 12.2552 18.8281 13.3437 18.7969 14.1875C18.7656 14.9062 18.6406 15.5469 18.4219 16.1094C18.2135 16.651 17.9115 17.1198 17.5156 17.5156C17.1198 17.9115 16.651 18.2135 16.1094 18.4219C15.5469 18.6406 14.9062 18.7656 14.1875 18.7969C13.3438 18.8281 12.2552 18.8437 10.9219 18.8437C9.58854 18.8437 8.5 18.8281 7.65625 18.7969C6.9375 18.7656 6.29688 18.6406 5.73438 18.4219C5.19271 18.2135 4.72396 17.9115 4.32812 17.5156C3.93229 17.1198 3.63021 16.651 3.42188 16.1094C3.20312 15.5469 3.07812 14.9062 3.04688 14.1875C3.01562 13.3437 3 12.2552 3 10.9219C3 9.58854 3.01562 8.5 3.04688 7.65625C3.07812 6.9375 3.20312 6.29687 3.42188 5.73437C3.63021 5.19271 3.93229 4.72396 4.32812 4.32812C4.72396 3.93229 5.19271 3.63021 5.73438 3.42187C6.29688 3.20312 6.9375 3.07812 7.65625 3.04687C8.5 3.01562 9.58854 3 10.9219 3ZM10.9219 4.03125C9.53646 4.03125 8.40625 4.04687 7.53125 4.07812C6.96875 4.09896 6.44792 4.19792 5.96875 4.375C5.21875 4.6875 4.6875 5.21875 4.375 5.96875C4.19792 6.44792 4.09896 6.96875 4.07812 7.53125C4.04688 8.40625 4.03125 9.53646 4.03125 10.9219C4.03125 12.3073 4.04688 13.4375 4.07812 14.3125C4.09896 14.875 4.19792 15.3958 4.375 15.875C4.6875 16.625 5.21875 17.1562 5.96875 17.4687C6.44792 17.6458 6.96875 17.7448 7.53125 17.7656C8.40625 17.7969 9.53646 17.8125 10.9219 17.8125C12.3073 17.8125 13.4375 17.7969 14.3125 17.7656C14.875 17.7448 15.3958 17.6458 15.875 17.4687C16.625 17.1562 17.1562 16.625 17.4688 15.875C17.6458 15.3958 17.7448 14.875 17.7656 14.3125C17.7969 13.4375 17.8125 12.3073 17.8125 10.9219C17.8125 9.53646 17.7969 8.40625 17.7656 7.53125C17.7448 6.96875 17.6458 6.44792 17.4688 5.96875C17.1562 5.21875 16.625 4.6875 15.875 4.375C15.3958 4.19792 14.875 4.09896 14.3125 4.07812C13.4375 4.04687 12.3073 4.03125 10.9219 4.03125ZM10.9219 14.0937C11.7969 14.0937 12.5443 13.7839 13.1641 13.1641C13.7839 12.5443 14.0938 11.7969 14.0938 10.9219C14.0938 10.0469 13.7839 9.29948 13.1641 8.67969C12.5443 8.0599 11.7969 7.75 10.9219 7.75C10.0469 7.75 9.29948 8.0599 8.67969 8.67969C8.0599 9.29948 7.75 10.0469 7.75 10.9219C7.75 11.7969 8.0599 12.5443 8.67969 13.1641C9.29948 13.7839 10.0469 14.0937 10.9219 14.0937ZM10.9219 6.85937C12.0469 6.85937 13.0052 7.25521 13.7969 8.04687C14.5885 8.83854 14.9844 9.79687 14.9844 10.9219C14.9844 12.0469 14.5885 13.0052 13.7969 13.7969C13.0052 14.5885 12.0469 14.9844 10.9219 14.9844C9.79688 14.9844 8.83854 14.5885 8.04688 13.7969C7.25521 13.0052 6.85938 12.0469 6.85938 10.9219C6.85938 9.79687 7.25521 8.83854 8.04688 8.04687C8.83854 7.25521 9.79688 6.85937 10.9219 6.85937ZM16.1094 6.70312C16.1094 6.96354 16.0156 7.1849 15.8281 7.36719C15.6406 7.54948 15.4115 7.64062 15.1406 7.64062C14.8802 7.64062 14.6589 7.54948 14.4766 7.36719C14.2943 7.1849 14.2031 6.96354 14.2031 6.70312C14.2031 6.43229 14.2943 6.20312 14.4766 6.01562C14.6589 5.82812 14.8802 5.73437 15.1406 5.73437C15.401 5.73437 15.6276 5.83073 15.8203 6.02344C16.013 6.21615 16.1094 6.44271 16.1094 6.70312Z"/>
</svg>
