<svg width="23" height="22" viewBox="0 0 23 22" fill="none" xmlns="http://www.w3.org/2000/svg">
<path d="M0 6.70091C0 6.07907 0.42312 5.74377 1.26936 5.695L4.5303 5.71329C4.74916 5.71329 4.89506 5.80473 4.96801 5.98763C5.30359 6.9021 5.67929 7.69159 6.09512 8.35611C6.51094 9.02062 7.05443 9.78573 7.72559 10.6514C7.78395 10.7612 7.87879 10.816 8.0101 10.816C8.11223 10.816 8.19248 10.7734 8.25084 10.688L8.3165 10.4868L8.33838 7.32275C8.33838 7.10328 8.27638 6.95697 8.15236 6.88381C8.02834 6.81065 7.79854 6.75578 7.46296 6.7192C7.20034 6.68262 7.06902 6.5485 7.06902 6.31684C7.06902 6.26807 7.07632 6.23149 7.09091 6.2071C7.39731 5.41456 8.27273 5.01829 9.71717 5.01829L10.9428 5C11.4972 5 11.9568 5.11583 12.3215 5.3475C12.6863 5.57916 12.8687 5.94495 12.8687 6.44486V10.5966C12.9708 10.6575 13.0657 10.688 13.1532 10.688C13.3721 10.688 13.5617 10.5783 13.7222 10.3588C15.3272 8.48108 16.1953 7.22521 16.3266 6.59118C16.3266 6.57899 16.3412 6.5485 16.3704 6.49973C16.4725 6.31684 16.6403 6.15833 16.8737 6.02421C17.1072 5.89008 17.3114 5.79864 17.4865 5.74987C17.5449 5.72548 17.6106 5.71329 17.6835 5.71329H21.0758L21.2946 5.73158C21.5864 5.73158 21.8126 5.84741 21.9731 6.07907C22.0314 6.15223 22.0716 6.23149 22.0934 6.31684C22.1153 6.40219 22.1299 6.48754 22.1372 6.57289C22.1445 6.65824 22.1481 6.70701 22.1481 6.7192V6.84723C22.046 7.34714 21.787 7.88058 21.3712 8.44755C20.9554 9.01452 20.4265 9.62722 19.7845 10.2856C19.1425 10.9441 18.7413 11.3769 18.5808 11.5842C18.4495 11.7305 18.3838 11.8646 18.3838 11.9866C18.3838 12.0841 18.4422 12.1938 18.5589 12.3158L21.7542 15.681C21.9293 15.8761 22.0168 16.0895 22.0168 16.3211C22.0168 16.6016 21.8855 16.8332 21.6229 17.0161C21.3603 17.199 21.0466 17.3027 20.6818 17.3271L20.3098 17.3453H16.9832C16.9686 17.3453 16.9394 17.3484 16.8956 17.3545C16.8519 17.3606 16.8227 17.3636 16.8081 17.3636C16.4871 17.3636 16.188 17.2478 15.9108 17.0161C15.8086 16.9186 15.1229 16.1992 13.8535 14.858C13.7806 14.7726 13.6785 14.6934 13.5471 14.6202C13.4888 14.8153 13.4122 15.0957 13.3173 15.4615C13.2225 15.8273 13.1532 16.0895 13.1094 16.248L13.0438 16.5589C12.8979 16.9857 12.5915 17.2417 12.1246 17.3271L11.8182 17.3453H9.6734C8.4624 17.3453 7.25505 16.882 6.05135 15.9554C4.84764 15.0287 3.76431 13.8307 2.80135 12.3615C1.83838 10.8922 0.941078 9.18218 0.109428 7.23131C0.0364759 7.0728 0 6.896 0 6.70091ZM13.1532 11.4379C12.8468 11.4379 12.5696 11.3678 12.3215 11.2275C12.0735 11.0873 11.9495 10.8953 11.9495 10.6514V6.44486C11.9495 6.201 11.8765 6.02725 11.7306 5.92361C11.5847 5.81997 11.3294 5.76815 10.9646 5.76815L9.71717 5.80473C9.08979 5.80473 8.6156 5.89618 8.29461 6.07907C8.93659 6.33513 9.25758 6.74969 9.25758 7.32275V10.5417C9.2284 10.8465 9.08249 11.0995 8.81987 11.3007C8.55724 11.5019 8.26543 11.6025 7.94445 11.6025C7.50673 11.6025 7.17116 11.4257 6.93771 11.0721C5.79966 9.63332 4.95342 8.26771 4.39899 6.97526L4.20202 6.49973L1.29125 6.48144C1.10157 6.48144 0.995791 6.49059 0.973906 6.50888C0.95202 6.52717 0.941078 6.57899 0.941078 6.66434C0.941078 6.77407 0.955668 6.8899 0.984849 7.01183L1.44444 8.03604C2.67003 10.6819 4.0014 12.7669 5.43855 14.291C6.8757 15.8151 8.28732 16.5772 9.6734 16.5772H11.862C11.9495 16.5772 12.0152 16.5559 12.0589 16.5132C12.1027 16.4705 12.1392 16.3882 12.1684 16.2663L12.2121 16.0834L12.6279 14.4739C12.7447 14.2544 12.8468 14.1081 12.9343 14.035C13.0948 13.9008 13.2845 13.8338 13.5034 13.8338C13.8535 13.8338 14.211 14.0106 14.5758 14.3642L16.436 16.3394C16.5528 16.4979 16.6768 16.5772 16.8081 16.5772H20.4192C20.8569 16.5772 21.0758 16.4857 21.0758 16.3029C21.0758 16.2419 21.0539 16.1809 21.0101 16.12L17.8367 12.8096C17.5887 12.5535 17.4646 12.2792 17.4646 11.9866C17.4646 11.6939 17.5814 11.4135 17.8148 11.1452C18.0045 10.9014 18.3729 10.496 18.92 9.92899C19.4672 9.36202 19.945 8.83163 20.3535 8.33782C20.7621 7.844 21.032 7.39591 21.1633 6.99354L21.229 6.75578C21.2144 6.7314 21.2071 6.69177 21.2071 6.6369C21.2071 6.58203 21.1998 6.53631 21.1852 6.49973H17.7492C17.5303 6.57289 17.3552 6.68262 17.2239 6.82894L17.0926 7.17644C16.7278 8.01775 15.7722 9.3163 14.2256 11.0721C13.9192 11.3159 13.5617 11.4379 13.1532 11.4379Z"/>
</svg>
