<svg xmlns="http://www.w3.org/2000/svg" xmlns:xlink="http://www.w3.org/1999/xlink"><defs>
<clipPath id="clip0">
<rect width="128" height="24" fill="white"/>
</clipPath>

<clipPath id="clip0">
<rect width="20" height="20.0688" fill="white" transform="translate(0 0.320435)"/>
</clipPath>
</defs><symbol id="footer-logo" viewBox="0 0 128 24">
<g clip-path="url(#clip0)">
<path d="M1.60253 22.0513C0.468358 20.3682 -0.0946573 18.3503 3.016e-05 16.3077V7.79487C-0.137317 5.73031 0.390444 3.67661 1.50238 1.94872C2.6041 0.615385 4.30676 0 6.81067 0C9.31458 0 10.9171 0.615385 11.9187 1.74359C13.006 3.17255 13.5409 4.96181 13.421 6.76923V8.82051H8.51333V6.46154C8.55297 5.76385 8.45065 5.06533 8.21286 4.41026C8.08576 4.14583 7.88431 3.9264 7.63443 3.78018C7.38455 3.63395 7.09766 3.56763 6.81067 3.58974C6.10958 3.58974 5.60879 3.79487 5.40848 4.30769C5.18191 5.03643 5.08025 5.79984 5.10801 6.5641V17.5385C5.05512 18.2799 5.19327 19.0227 5.50864 19.6923C5.70895 20.2051 6.20973 20.4103 6.91083 20.4103C7.61192 20.4103 8.01255 20.2051 8.21286 19.6923C8.44058 18.9992 8.54242 18.2692 8.51333 17.5385V15.0769H13.421V17.1282C13.5229 18.9651 12.9911 20.7803 11.9187 22.2564C10.9171 23.4872 9.21443 24.1026 6.81067 24.1026C4.40692 24 2.6041 23.3846 1.60253 22.0513Z" fill="#111111"/>
<path d="M19.3302 0.307617H25.0391L29.2457 23.6922H24.6385L23.8372 18.7692H20.5321L19.7308 23.6922H15.0235L19.3302 0.307617ZM23.4366 15.6922L22.2347 6.56403L21.0329 15.6922H23.4366Z" fill="#111111"/>
<path d="M32.7512 4.20505H29.3459V0.307617H41.2645V4.10249H37.8592V23.6922H32.7512V4.20505Z" fill="#111111"/>
<path d="M50.3787 0.307617H59.1925V2.76916H53.4836V10.4615H58.0908V12.8204H53.4836V21.4358H59.1925V23.7948H50.2786V0.307617H50.3787Z" fill="#111111"/>
<path d="M61.7966 0.307617H64L70.5102 15.7948V0.307617H73.1142V23.6922H71.1111L64.5008 7.69223V23.6922H61.7966V0.307617Z" fill="#111111"/>
<path d="M76.1189 0.307617H84.9327V2.76916H79.2238V10.4615H83.831V12.8204H79.2238V21.4358H84.9327V23.7948H76.1189V0.307617Z" fill="#111111"/>
<path d="M87.5368 0.3076H92.144C93.9564 0.179397 95.7575 0.685711 97.2519 1.7435C98.3537 2.66657 98.8544 4.3076 98.8544 6.46145C98.8544 9.4358 97.953 11.282 96.0501 11.8973L99.2551 23.5897H96.1502L93.1455 12.6153H90.6416V23.5897H87.4366V0.3076H87.5368ZM91.9437 10.3589C92.9762 10.446 94.0053 10.1553 94.8482 9.53837C95.4491 9.02555 95.7496 7.99991 95.7496 6.46145C95.7774 5.69719 95.6757 4.93378 95.4491 4.20504C95.2237 3.68211 94.8366 3.24964 94.3474 2.97427C93.6576 2.65236 92.9003 2.51137 92.144 2.56401H90.7418V10.2563H91.9437V10.3589Z" fill="#111111"/>
<path d="M102.861 21.9487C101.82 20.1554 101.331 18.0821 101.459 15.9999V8.20507C101.434 6.71875 101.602 5.23567 101.959 3.79481C102.294 2.71811 102.962 1.78218 103.862 1.12815C104.981 0.450275 106.271 0.128917 107.568 0.20507C109.671 0.20507 111.174 0.71789 112.075 1.8461C113.112 3.33582 113.608 5.14977 113.477 6.9743V7.79481H110.473V7.07687C110.477 6.21789 110.41 5.36008 110.272 4.51276C110.188 3.97732 109.9 3.49792 109.471 3.17943C108.908 2.80104 108.24 2.62099 107.568 2.66661C106.85 2.61949 106.139 2.83785 105.565 3.28199C105.329 3.48529 105.137 3.73569 104.999 4.01787C104.861 4.30004 104.781 4.60805 104.764 4.92302C104.632 5.83993 104.565 6.76543 104.563 7.69225V16.4102C104.49 17.7384 104.694 19.0674 105.164 20.3076C105.565 21.1281 106.366 21.4358 107.568 21.4358C108.043 21.4964 108.524 21.4119 108.952 21.1929C109.38 20.9739 109.734 20.6302 109.972 20.2051C110.501 18.9081 110.741 17.5064 110.673 16.1025V14.4615H107.768V12.1025H113.577V23.6923H111.574L111.274 21.0256C111.011 21.9193 110.465 22.6975 109.72 23.2364C108.976 23.7753 108.078 24.0441 107.167 23.9999C106.34 24.0498 105.513 23.8885 104.761 23.5304C104.01 23.1724 103.357 22.6289 102.861 21.9487Z" fill="#111111"/>
<path d="M119.987 15.4871L115.08 0.410156H118.084L121.59 11.6922L124.995 0.410156H128L123.092 15.4871V23.6922H120.088V15.4871H119.987Z" fill="#111111"/>
</g>

</symbol><symbol id="html-academy-logo" viewBox="0 0 27 34">
<path d="M13.6426 0.0157537L13.5 0L0 1.40733V26.0129L13.5 34L27 26.0129V1.40733L13.6426 0.0157537ZM25.2344 25.0151L13.5 31.9573L1.76561 25.0151V14.9293L13.4507 21.8451L13.4701 23.0984L5.45351 18.3548L5.44295 19.5801L13.4894 24.3885L13.5088 25.675L5.46408 20.9174L5.45351 22.1427L13.5 26.9511L21.6239 22.1182V20.8929V16.909L25.2432 14.7595L25.2344 25.0151ZM25.2344 13.4519L22.0147 15.3319L20.5325 16.2071L13.4666 12.0201L13.456 13.2454L19.4957 16.818L19.4429 16.8495L19.3126 16.9247L18.4536 17.4166L13.4666 14.4689L13.456 15.6942L17.3921 18.0222L16.4591 18.6314L16.438 18.6436L13.4666 16.902L13.456 18.1273L15.4029 19.2615L13.4155 20.4483L1.7973 13.5762L13.4349 6.61831L25.2344 13.4519ZM25.2344 12.2266L13.4401 5.31075L1.76561 12.2196V2.9897L13.5 1.76442L25.2344 2.9897V12.2266Z"/>
</symbol><symbol id="icon-email" viewBox="0 0 19 14">
<line x1="0.65" y1="5.84766" x2="0.65" y2="13.8477" stroke-width="1.3"/>
<line x1="17.65" y1="5.84766" x2="17.65" y2="13.8477" stroke-width="1.3"/>
<line y1="13.1977" x2="18" y2="13.1977" stroke-width="1.3"/>
<line y1="1.19766" x2="18" y2="1.19766" stroke-width="1.3"/>
<path d="M17.35 3.02975L9.00002 9.5242L0.65 3.02975V1.49766H3.5L9.00002 1.49766H14H17.35V3.02975Z" stroke-width="1.3"/>
</symbol><symbol id="icon-phone" viewBox="0 0 20 21">
<g clip-path="url(#clip0)">
<path d="M17.9 9.75275H9.39999V10.9569H17.9L15.8 13.0641L16.7 13.9672L19.8 10.8565C19.8974 10.7263 19.95 10.5678 19.95 10.405C19.95 10.2421 19.8974 10.0837 19.8 9.95344L16.7 6.84277L15.8 7.74587L17.9 9.75275Z" fill="black"/>
<path d="M8.10001 19.7872V13.5659C8.08846 13.41 8.02154 13.2635 7.91142 13.153C7.80131 13.0425 7.65531 12.9754 7.50001 12.9638H3.10001C3.10516 13.2815 3.23325 13.5848 3.45718 13.8095C3.68112 14.0342 3.98336 14.1627 4.30001 14.1679H6.80001V19.1851H3.10001C2.86326 19.2 2.62591 19.1676 2.40176 19.0896C2.17762 19.0117 1.97115 18.8898 1.79436 18.7311C1.61757 18.5723 1.47399 18.3799 1.37196 18.165C1.26992 17.9501 1.21148 17.717 1.20001 17.4793V3.43111C1.19181 2.96681 1.36516 2.51774 1.68292 2.18013C2.00069 1.84252 2.43758 1.64322 2.90001 1.62492H6.80001V6.64212H4.40001C4.08336 6.64729 3.78112 6.77581 3.55718 7.00052C3.33325 7.22523 3.20516 7.52851 3.20001 7.84625H7.60001C7.75531 7.83466 7.90131 7.76751 8.01142 7.65701C8.12154 7.54651 8.18846 7.40002 8.20001 7.24418V0.922517C8.15232 0.76584 8.06117 0.626022 7.93721 0.519407C7.81325 0.412792 7.66161 0.343785 7.50001 0.320453H3.10001C2.70599 0.307054 2.31321 0.371716 1.94411 0.510744C1.57501 0.649771 1.23684 0.860436 0.948933 1.13069C0.661026 1.40095 0.42903 1.7255 0.266207 2.08579C0.103385 2.44608 0.01293 2.83504 1.46306e-05 3.23043V17.1782C-0.0289644 17.5773 0.0246504 17.978 0.157487 18.3552C0.290324 18.7324 0.499509 19.078 0.771886 19.3701C1.04426 19.6623 1.37394 19.8947 1.74019 20.0529C2.10643 20.211 2.50132 20.2913 2.90001 20.2889H7.50001C7.5735 20.304 7.64943 20.3022 7.72216 20.2839C7.7949 20.2655 7.86259 20.2309 7.92021 20.1828C7.97783 20.1346 8.02391 20.074 8.05504 20.0055C8.08616 19.9371 8.10153 19.8624 8.10001 19.7872Z" fill="black"/>
</g>

</symbol><symbol id="icon_facebook" viewBox="0 0 23 22">
<path d="M16.0833 2H13.3333C12.1178 2 10.952 2.47349 10.0924 3.31631C9.23289 4.15914 8.75 5.30225 8.75 6.49418V9.19069H6V12.786H8.75V19.9767H12.4167V12.786H15.1667L16.0833 9.19069H12.4167V6.49418C12.4167 6.25579 12.5132 6.02717 12.6852 5.85861C12.8571 5.69004 13.0902 5.59534 13.3333 5.59534H16.0833V2Z" stroke-width="1.1" stroke-linecap="round" stroke-linejoin="round"/>
</symbol><symbol id="icon_instagram" viewBox="0 0 23 22">
<path d="M10.9219 3C12.2552 3 13.3438 3.01562 14.1875 3.04687C14.9062 3.07812 15.5469 3.20312 16.1094 3.42187C16.651 3.63021 17.1198 3.93229 17.5156 4.32812C17.9115 4.72396 18.2135 5.19271 18.4219 5.73437C18.6406 6.29687 18.7656 6.9375 18.7969 7.65625C18.8281 8.5 18.8438 9.58854 18.8438 10.9219C18.8438 12.2552 18.8281 13.3437 18.7969 14.1875C18.7656 14.9062 18.6406 15.5469 18.4219 16.1094C18.2135 16.651 17.9115 17.1198 17.5156 17.5156C17.1198 17.9115 16.651 18.2135 16.1094 18.4219C15.5469 18.6406 14.9062 18.7656 14.1875 18.7969C13.3438 18.8281 12.2552 18.8437 10.9219 18.8437C9.58854 18.8437 8.5 18.8281 7.65625 18.7969C6.9375 18.7656 6.29688 18.6406 5.73438 18.4219C5.19271 18.2135 4.72396 17.9115 4.32812 17.5156C3.93229 17.1198 3.63021 16.651 3.42188 16.1094C3.20312 15.5469 3.07812 14.9062 3.04688 14.1875C3.01562 13.3437 3 12.2552 3 10.9219C3 9.58854 3.01562 8.5 3.04688 7.65625C3.07812 6.9375 3.20312 6.29687 3.42188 5.73437C3.63021 5.19271 3.93229 4.72396 4.32812 4.32812C4.72396 3.93229 5.19271 3.63021 5.73438 3.42187C6.29688 3.20312 6.9375 3.07812 7.65625 3.04687C8.5 3.01562 9.58854 3 10.9219 3ZM10.9219 4.03125C9.53646 4.03125 8.40625 4.04687 7.53125 4.07812C6.96875 4.09896 6.44792 4.19792 5.96875 4.375C5.21875 4.6875 4.6875 5.21875 4.375 5.96875C4.19792 6.44792 4.09896 6.96875 4.07812 7.53125C4.04688 8.40625 4.03125 9.53646 4.03125 10.9219C4.03125 12.3073 4.04688 13.4375 4.07812 14.3125C4.09896 14.875 4.19792 15.3958 4.375 15.875C4.6875 16.625 5.21875 17.1562 5.96875 17.4687C6.44792 17.6458 6.96875 17.7448 7.53125 17.7656C8.40625 17.7969 9.53646 17.8125 10.9219 17.8125C12.3073 17.8125 13.4375 17.7969 14.3125 17.7656C14.875 17.7448 15.3958 17.6458 15.875 17.4687C16.625 17.1562 17.1562 16.625 17.4688 15.875C17.6458 15.3958 17.7448 14.875 17.7656 14.3125C17.7969 13.4375 17.8125 12.3073 17.8125 10.9219C17.8125 9.53646 17.7969 8.40625 17.7656 7.53125C17.7448 6.96875 17.6458 6.44792 17.4688 5.96875C17.1562 5.21875 16.625 4.6875 15.875 4.375C15.3958 4.19792 14.875 4.09896 14.3125 4.07812C13.4375 4.04687 12.3073 4.03125 10.9219 4.03125ZM10.9219 14.0937C11.7969 14.0937 12.5443 13.7839 13.1641 13.1641C13.7839 12.5443 14.0938 11.7969 14.0938 10.9219C14.0938 10.0469 13.7839 9.29948 13.1641 8.67969C12.5443 8.0599 11.7969 7.75 10.9219 7.75C10.0469 7.75 9.29948 8.0599 8.67969 8.67969C8.0599 9.29948 7.75 10.0469 7.75 10.9219C7.75 11.7969 8.0599 12.5443 8.67969 13.1641C9.29948 13.7839 10.0469 14.0937 10.9219 14.0937ZM10.9219 6.85937C12.0469 6.85937 13.0052 7.25521 13.7969 8.04687C14.5885 8.83854 14.9844 9.79687 14.9844 10.9219C14.9844 12.0469 14.5885 13.0052 13.7969 13.7969C13.0052 14.5885 12.0469 14.9844 10.9219 14.9844C9.79688 14.9844 8.83854 14.5885 8.04688 13.7969C7.25521 13.0052 6.85938 12.0469 6.85938 10.9219C6.85938 9.79687 7.25521 8.83854 8.04688 8.04687C8.83854 7.25521 9.79688 6.85937 10.9219 6.85937ZM16.1094 6.70312C16.1094 6.96354 16.0156 7.1849 15.8281 7.36719C15.6406 7.54948 15.4115 7.64062 15.1406 7.64062C14.8802 7.64062 14.6589 7.54948 14.4766 7.36719C14.2943 7.1849 14.2031 6.96354 14.2031 6.70312C14.2031 6.43229 14.2943 6.20312 14.4766 6.01562C14.6589 5.82812 14.8802 5.73437 15.1406 5.73437C15.401 5.73437 15.6276 5.83073 15.8203 6.02344C16.013 6.21615 16.1094 6.44271 16.1094 6.70312Z"/>
</symbol><symbol id="icon_vkontakte" viewBox="0 0 23 22">
<path d="M0 6.70091C0 6.07907 0.42312 5.74377 1.26936 5.695L4.5303 5.71329C4.74916 5.71329 4.89506 5.80473 4.96801 5.98763C5.30359 6.9021 5.67929 7.69159 6.09512 8.35611C6.51094 9.02062 7.05443 9.78573 7.72559 10.6514C7.78395 10.7612 7.87879 10.816 8.0101 10.816C8.11223 10.816 8.19248 10.7734 8.25084 10.688L8.3165 10.4868L8.33838 7.32275C8.33838 7.10328 8.27638 6.95697 8.15236 6.88381C8.02834 6.81065 7.79854 6.75578 7.46296 6.7192C7.20034 6.68262 7.06902 6.5485 7.06902 6.31684C7.06902 6.26807 7.07632 6.23149 7.09091 6.2071C7.39731 5.41456 8.27273 5.01829 9.71717 5.01829L10.9428 5C11.4972 5 11.9568 5.11583 12.3215 5.3475C12.6863 5.57916 12.8687 5.94495 12.8687 6.44486V10.5966C12.9708 10.6575 13.0657 10.688 13.1532 10.688C13.3721 10.688 13.5617 10.5783 13.7222 10.3588C15.3272 8.48108 16.1953 7.22521 16.3266 6.59118C16.3266 6.57899 16.3412 6.5485 16.3704 6.49973C16.4725 6.31684 16.6403 6.15833 16.8737 6.02421C17.1072 5.89008 17.3114 5.79864 17.4865 5.74987C17.5449 5.72548 17.6106 5.71329 17.6835 5.71329H21.0758L21.2946 5.73158C21.5864 5.73158 21.8126 5.84741 21.9731 6.07907C22.0314 6.15223 22.0716 6.23149 22.0934 6.31684C22.1153 6.40219 22.1299 6.48754 22.1372 6.57289C22.1445 6.65824 22.1481 6.70701 22.1481 6.7192V6.84723C22.046 7.34714 21.787 7.88058 21.3712 8.44755C20.9554 9.01452 20.4265 9.62722 19.7845 10.2856C19.1425 10.9441 18.7413 11.3769 18.5808 11.5842C18.4495 11.7305 18.3838 11.8646 18.3838 11.9866C18.3838 12.0841 18.4422 12.1938 18.5589 12.3158L21.7542 15.681C21.9293 15.8761 22.0168 16.0895 22.0168 16.3211C22.0168 16.6016 21.8855 16.8332 21.6229 17.0161C21.3603 17.199 21.0466 17.3027 20.6818 17.3271L20.3098 17.3453H16.9832C16.9686 17.3453 16.9394 17.3484 16.8956 17.3545C16.8519 17.3606 16.8227 17.3636 16.8081 17.3636C16.4871 17.3636 16.188 17.2478 15.9108 17.0161C15.8086 16.9186 15.1229 16.1992 13.8535 14.858C13.7806 14.7726 13.6785 14.6934 13.5471 14.6202C13.4888 14.8153 13.4122 15.0957 13.3173 15.4615C13.2225 15.8273 13.1532 16.0895 13.1094 16.248L13.0438 16.5589C12.8979 16.9857 12.5915 17.2417 12.1246 17.3271L11.8182 17.3453H9.6734C8.4624 17.3453 7.25505 16.882 6.05135 15.9554C4.84764 15.0287 3.76431 13.8307 2.80135 12.3615C1.83838 10.8922 0.941078 9.18218 0.109428 7.23131C0.0364759 7.0728 0 6.896 0 6.70091ZM13.1532 11.4379C12.8468 11.4379 12.5696 11.3678 12.3215 11.2275C12.0735 11.0873 11.9495 10.8953 11.9495 10.6514V6.44486C11.9495 6.201 11.8765 6.02725 11.7306 5.92361C11.5847 5.81997 11.3294 5.76815 10.9646 5.76815L9.71717 5.80473C9.08979 5.80473 8.6156 5.89618 8.29461 6.07907C8.93659 6.33513 9.25758 6.74969 9.25758 7.32275V10.5417C9.2284 10.8465 9.08249 11.0995 8.81987 11.3007C8.55724 11.5019 8.26543 11.6025 7.94445 11.6025C7.50673 11.6025 7.17116 11.4257 6.93771 11.0721C5.79966 9.63332 4.95342 8.26771 4.39899 6.97526L4.20202 6.49973L1.29125 6.48144C1.10157 6.48144 0.995791 6.49059 0.973906 6.50888C0.95202 6.52717 0.941078 6.57899 0.941078 6.66434C0.941078 6.77407 0.955668 6.8899 0.984849 7.01183L1.44444 8.03604C2.67003 10.6819 4.0014 12.7669 5.43855 14.291C6.8757 15.8151 8.28732 16.5772 9.6734 16.5772H11.862C11.9495 16.5772 12.0152 16.5559 12.0589 16.5132C12.1027 16.4705 12.1392 16.3882 12.1684 16.2663L12.2121 16.0834L12.6279 14.4739C12.7447 14.2544 12.8468 14.1081 12.9343 14.035C13.0948 13.9008 13.2845 13.8338 13.5034 13.8338C13.8535 13.8338 14.211 14.0106 14.5758 14.3642L16.436 16.3394C16.5528 16.4979 16.6768 16.5772 16.8081 16.5772H20.4192C20.8569 16.5772 21.0758 16.4857 21.0758 16.3029C21.0758 16.2419 21.0539 16.1809 21.0101 16.12L17.8367 12.8096C17.5887 12.5535 17.4646 12.2792 17.4646 11.9866C17.4646 11.6939 17.5814 11.4135 17.8148 11.1452C18.0045 10.9014 18.3729 10.496 18.92 9.92899C19.4672 9.36202 19.945 8.83163 20.3535 8.33782C20.7621 7.844 21.032 7.39591 21.1633 6.99354L21.229 6.75578C21.2144 6.7314 21.2071 6.69177 21.2071 6.6369C21.2071 6.58203 21.1998 6.53631 21.1852 6.49973H17.7492C17.5303 6.57289 17.3552 6.68262 17.2239 6.82894L17.0926 7.17644C16.7278 8.01775 15.7722 9.3163 14.2256 11.0721C13.9192 11.3159 13.5617 11.4379 13.1532 11.4379Z"/>
</symbol></svg>